<?xml version="1.0" encoding="UTF-8" standalone="no"?> <svg width="24" height="24" viewBox="0 0 24 24" fill="none" xmlns="http://www.w3.org/2000/svg">
<path fill-rule="evenodd" clip-rule="evenodd" d="M10.6 1.20001C10.3189 0.989155 9.94768 0.941349 9.62229 1.07408C9.2969 1.20682 9.06506 1.50062 9.01163 1.84795C8.55801 4.7965 7.2275 6.48974 5.86931 8.21821L5.83868 8.25719C4.4603 10.0115 3 11.8769 3 15C3 19.9706 7.02944 24 12 24C16.9706 24 21 19.9706 21 15C21 12.5019 19.9576 10.5427 18.9512 9.23366C18.4465 8.57716 17.9422 8.0723 17.5616 7.72947C17.3709 7.55761 17.2098 7.42521 17.0933 7.3336C17.0351 7.28777 16.9879 7.25204 16.9535 7.2266C16.9363 7.21387 16.9224 7.20371 16.9118 7.19613L16.8987 7.18669L16.8941 7.18343L16.8908 7.18114C16.5809 6.9639 16.1749 6.94025 15.8418 7.12003C15.5088 7.29981 15.3057 7.65211 15.3173 8.03042L15.3175 8.05371C15.3176 8.07679 15.3175 8.11462 15.3163 8.16568C15.3139 8.26792 15.3073 8.42243 15.2898 8.61721C15.2548 9.00834 15.1772 9.55281 15.0078 10.1578C14.7012 11.2527 14.1133 12.4837 12.9931 13.4018C13.5239 11.8859 14.047 9.81044 13.9388 7.67598C13.8222 5.37749 12.9659 2.97446 10.6 1.20001ZM17.0816 10.1013C17.0401 10.2925 16.9912 10.4918 16.9337 10.6971C16.517 12.1851 15.6253 14.0622 13.7153 15.3556C13.3434 15.6074 12.911 15.7183 12.4762 15.6571C12.0532 15.5977 11.6999 15.3861 11.4437 15.1184C10.9404 14.5921 10.7307 13.7693 11.0172 12.9873C11.536 11.5708 12.0369 9.66114 11.9413 7.77731C11.8722 6.4143 11.4949 5.08591 10.5881 3.94564C9.86594 6.37026 8.59448 7.98769 7.48197 9.40293L7.41132 9.49283C6.0397 11.2385 5 12.6231 5 15C5 18.866 8.13401 22 12 22C15.866 22 19 18.866 19 15C19 13.0798 18.2008 11.539 17.3656 10.4526C17.2706 10.329 17.1755 10.2118 17.0816 10.1013Z" fill="#293644"/>
</svg>
