<?xml version="1.0" encoding="iso-8859-1"?>
<!-- Generator: Adobe Illustrator 23.1.1, SVG Export Plug-In . SVG Version: 6.00 Build 0)  -->
<svg version="1.1" id="Layer_1_1_" xmlns="http://www.w3.org/2000/svg" xmlns:xlink="http://www.w3.org/1999/xlink" x="0px" y="0px"
	 viewBox="0 0 64 64" style="enable-background:new 0 0 64 64;" xml:space="preserve">
<path d="M47.052,10.141c-0.119,0.355-0.029,0.748,0.232,1.016l1.647,1.688l-0.391,2.396c-0.062,0.378,0.098,0.758,0.411,0.979
	c0.314,0.221,0.726,0.243,1.06,0.058L52,15.178l1.988,1.099c0.151,0.083,0.318,0.125,0.484,0.125c0.202,0,0.404-0.062,0.576-0.183
	c0.313-0.22,0.473-0.601,0.411-0.979l-0.391-2.396l1.647-1.688c0.262-0.268,0.352-0.66,0.232-1.016s-0.427-0.615-0.797-0.671
	l-2.236-0.342l-1.009-2.15C52.741,6.626,52.388,6.402,52,6.402s-0.741,0.224-0.905,0.575l-1.009,2.15L47.849,9.47
	C47.479,9.526,47.171,9.785,47.052,10.141z M50.915,11.024c0.33-0.051,0.613-0.262,0.754-0.564L52,9.756l0.331,0.705
	c0.142,0.302,0.424,0.513,0.754,0.564l0.84,0.128l-0.641,0.657c-0.222,0.227-0.322,0.546-0.271,0.859l0.141,0.862l-0.67-0.37
	c-0.15-0.083-0.317-0.125-0.484-0.125s-0.333,0.042-0.484,0.125l-0.67,0.37l0.141-0.862c0.051-0.313-0.049-0.632-0.271-0.859
	l-0.641-0.657L50.915,11.024z"/>
<path d="M62,11.971l-0.331-0.003L60,12c0,0.601-0.067,1.2-0.198,1.78l1.95,0.442C61.917,13.498,62,12.75,62,11.971z"/>
<path d="M45.732,7.028l-1.565-1.244C43.7,6.37,43.301,7.009,42.978,7.682l1.804,0.864C45.04,8.008,45.359,7.497,45.732,7.028z"/>
<path d="M61.742,9.735c-0.169-0.729-0.421-1.438-0.748-2.11l-1.798,0.876c0.261,0.537,0.462,1.104,0.598,1.687L61.742,9.735z"/>
<path d="M45.744,4.198l1.252,1.56c0.467-0.375,0.976-0.697,1.513-0.958L47.635,3C46.963,3.327,46.327,3.729,45.744,4.198z"/>
<path d="M45.775,19.827l1.246-1.564c-0.468-0.373-0.895-0.798-1.269-1.265l-1.561,1.25C44.659,18.831,45.191,19.362,45.775,19.827z"
	/>
<path d="M56.991,18.253c-0.468,0.375-0.978,0.696-1.514,0.955l0.87,1.801c0.671-0.324,1.308-0.726,1.893-1.193L56.991,18.253z"/>
<path d="M58.208,4.16l-1.242,1.567c0.469,0.372,0.896,0.796,1.271,1.262l1.559-1.254C59.327,5.154,58.793,4.624,58.208,4.16z"/>
<path d="M61.013,16.337l-1.802-0.868c-0.259,0.538-0.58,1.048-0.954,1.516l1.563,1.247C60.288,17.647,60.688,17.01,61.013,16.337z"
	/>
<path d="M56.31,2.975c-0.675-0.323-1.388-0.57-2.118-0.733l-0.437,1.952c0.583,0.13,1.152,0.327,1.691,0.585L56.31,2.975z"/>
<path d="M51.975,4l-0.006-2c-0.75,0.002-1.498,0.088-2.223,0.255l0.449,1.949C50.775,4.071,51.373,4.002,51.975,4z"/>
<path d="M52.01,20v2c0.749,0,1.497-0.084,2.224-0.25l-0.445-1.95C53.207,19.933,52.609,20,52.01,20z"/>
<path d="M47.671,21.016c0.674,0.325,1.386,0.573,2.116,0.738l0.441-1.951c-0.583-0.131-1.151-0.33-1.69-0.589L47.671,21.016z"/>
<path d="M44.796,15.483c-0.261-0.538-0.461-1.105-0.594-1.687l-1.949,0.446c0.167,0.729,0.417,1.44,0.744,2.114L44.796,15.483z"/>
<path d="M42,12v0.019L44,12c0-0.596,0.065-1.189,0.195-1.764l-1.951-0.438C42.082,10.516,42,11.257,42,12z"/>
<path d="M3,62h10c0.552,0,1-0.448,1-1v-8c0-1.51-1.125-2.751-2.58-2.958C11.78,49.442,12,48.749,12,48c0-2.206-1.794-4-4-4
	s-4,1.794-4,4c0,0.749,0.22,1.442,0.58,2.042C3.125,50.249,2,51.49,2,53v8C2,61.552,2.448,62,3,62z M8,46c1.103,0,2,0.897,2,2
	s-0.897,2-2,2s-2-0.897-2-2S6.897,46,8,46z M4,53c0-0.551,0.449-1,1-1h6c0.551,0,1,0.449,1,1v7H4V53z"/>
<path d="M50.583,46.601c2.649-4.239,3.6-9.406,3.939-12.601H57c0.381,0,0.729-0.217,0.897-0.559s0.127-0.75-0.106-1.052
	l-5.526-7.157c-0.189-0.245-0.481-0.389-0.792-0.389c-0.001,0-0.001,0-0.002,0c-0.311,0-0.603,0.146-0.792,0.393l-5.474,7.157
	c-0.231,0.302-0.271,0.709-0.102,1.05C45.272,33.784,45.62,34,46,34h1.956c-0.368,2.455-1.179,6.096-2.931,8.899
	c-1.073,1.717-2.441,3.256-4.024,4.618V44c0-2.449-1.773-4.483-4.101-4.909C37.578,38.237,38,37.172,38,36c0-2.757-2.243-5-5-5
	s-5,2.243-5,5c0,1.172,0.422,2.237,1.101,3.091C26.773,39.517,25,41.551,25,44v9.936c-2.238,0.224-4.553,0.251-6.912,0.041
	c-0.283-0.023-0.557,0.069-0.764,0.258S17,54.692,17,54.973v4.587c0,0.518,0.396,0.95,0.912,0.996
	c1.339,0.119,2.664,0.177,3.972,0.177C34.245,60.733,45.016,55.508,50.583,46.601z M33,33c1.654,0,3,1.346,3,3s-1.346,3-3,3
	s-3-1.346-3-3S31.346,33,33,33z M27,44c0-1.654,1.346-3,3-3h6c1.654,0,3,1.346,3,3v5.073c-3.36,2.307-7.483,3.885-12,4.605V44z
	 M19,58.635v-2.584c11.836,0.718,22.637-3.958,27.721-12.092c2.25-3.6,3.077-8.338,3.37-10.842c0.033-0.284-0.056-0.568-0.246-0.781
	C49.655,32.122,49.383,32,49.098,32h-1.074l3.454-4.516L54.964,32h-1.353c-0.521,0-0.954,0.399-0.997,0.918
	c-0.235,2.861-1.031,8.307-3.729,12.623C43.265,54.537,31.868,59.512,19,58.635z"/>
<rect x="32" y="26" width="2" height="3"/>
<rect x="26.697" y="28.197" transform="matrix(0.7071 -0.7071 0.7071 0.7071 -12.8866 28.2826)" width="2" height="3"/>
<rect x="36.803" y="28.697" transform="matrix(0.7071 -0.7071 0.7071 0.7071 -9.78 35.7825)" width="3" height="2"/>
</svg>
